<svg width="152" height="42" viewBox="0 0 152 42" fill="none" xmlns="http://www.w3.org/2000/svg">
<path d="M37.0489 23.2209L37.1024 23.2152L53.3401 21.6188L64 20.5709L53.3401 19.5241L37.7658 17.9925L46.6975 6.85999L52.202 0L45.1858 5.38194L33.5065 14.339L33.0701 10.6251L32.0006 1.52128L30.9299 10.6251L30.248 16.4348L25.5639 12.7995L18.223 7.10121L24.0511 14.2786L27.0093 17.922H27.0058H26.9511L26.8976 17.9277L10.6599 19.5241L0 20.5709L10.6599 21.6188L24.6806 22.9979L15.6256 34.2829L10.1211 41.1429L17.1384 35.7621L29.7278 26.1053L29.779 26.0654L29.8244 26.0211L30.3597 25.4988L30.9299 30.5132L32.0006 39.9265L33.0712 30.5132L33.7357 24.6682L38.4338 28.3422L45.9981 34.2578L39.9478 26.8619L36.9686 23.2209H36.9942H37.0489Z" fill="white"/>
<path d="M34.7048 21.5826L34.7335 21.5796L43.4322 20.7244L49.1429 20.163L43.4322 19.6022L35.0888 18.7817L39.8737 12.8178L42.8225 9.14285L39.0638 12.026L32.8071 16.8244L32.5733 14.8349L32.0003 9.95782L31.4268 14.8349L31.0615 17.9472L28.5521 15.9997L24.6195 12.9471L27.7417 16.7921L29.3264 18.7439H29.3246H29.2953L29.2666 18.747L20.5678 19.6022L14.8572 20.163L20.5678 20.7244L28.079 21.4631L23.228 27.5087L20.2792 31.1837L24.0385 28.3011L30.7828 23.1278L30.8102 23.1065L30.8345 23.0827L31.1213 22.8029L31.4268 25.4892L32.0003 30.5321L32.5739 25.4892L32.9299 22.358L35.4467 24.3262L39.499 27.4953L36.2578 23.5332L34.6618 21.5826H34.6755H34.7048Z" fill="#0333FF"/>
<path d="M74.5 27.2314C74.14 27.2314 73.8467 27.1448 73.62 26.9714C73.4067 26.7981 73.2333 26.5248 73.1 26.1514L68.92 14.3314C68.7733 13.9048 68.8 13.5448 69 13.2514C69.2133 12.9581 69.5667 12.8114 70.06 12.8114C70.42 12.8114 70.7 12.8981 70.9 13.0714C71.1 13.2314 71.26 13.4914 71.38 13.8514L74.98 24.5314H74.18L77.94 13.8714C78.0733 13.5114 78.24 13.2448 78.44 13.0714C78.64 12.8981 78.9 12.8114 79.22 12.8114C79.54 12.8114 79.7933 12.8981 79.98 13.0714C80.1667 13.2448 80.3267 13.5181 80.46 13.8914L84.1 24.5314H83.4L87.06 13.8514C87.18 13.5048 87.34 13.2448 87.54 13.0714C87.74 12.8981 88.0133 12.8114 88.36 12.8114C88.7867 12.8114 89.1 12.9581 89.3 13.2514C89.5 13.5448 89.5267 13.9048 89.38 14.3314L85.16 26.1714C85.0267 26.5314 84.8533 26.7981 84.64 26.9714C84.4267 27.1448 84.14 27.2314 83.78 27.2314C83.42 27.2314 83.1333 27.1448 82.92 26.9714C82.7067 26.7981 82.5333 26.5248 82.4 26.1514L78.92 16.2314H79.38L75.86 26.1714C75.7267 26.5314 75.5533 26.7981 75.34 26.9714C75.14 27.1448 74.86 27.2314 74.5 27.2314ZM93.8017 27.2114C93.4017 27.2114 93.0951 27.0914 92.8817 26.8514C92.6684 26.6114 92.5617 26.2781 92.5617 25.8514V18.5114C92.5617 18.0714 92.6684 17.7381 92.8817 17.5114C93.0951 17.2714 93.4017 17.1514 93.8017 17.1514C94.2017 17.1514 94.5084 17.2714 94.7217 17.5114C94.9484 17.7381 95.0617 18.0714 95.0617 18.5114V25.8514C95.0617 26.2781 94.9551 26.6114 94.7417 26.8514C94.5284 27.0914 94.2151 27.2114 93.8017 27.2114ZM93.8017 15.2914C93.3351 15.2914 92.9684 15.1781 92.7017 14.9514C92.4484 14.7114 92.3217 14.3848 92.3217 13.9714C92.3217 13.5448 92.4484 13.2181 92.7017 12.9914C92.9684 12.7648 93.3351 12.6514 93.8017 12.6514C94.2817 12.6514 94.6484 12.7648 94.9017 12.9914C95.1551 13.2181 95.2817 13.5448 95.2817 13.9714C95.2817 14.3848 95.1551 14.7114 94.9017 14.9514C94.6484 15.1781 94.2817 15.2914 93.8017 15.2914ZM101.239 27.2714C100.666 27.2714 100.059 27.2114 99.4194 27.0914C98.7794 26.9714 98.206 26.7648 97.6994 26.4714C97.486 26.3381 97.3327 26.1848 97.2394 26.0114C97.1594 25.8248 97.126 25.6448 97.1394 25.4714C97.166 25.2848 97.2327 25.1248 97.3394 24.9914C97.4594 24.8581 97.606 24.7714 97.7794 24.7314C97.966 24.6914 98.166 24.7248 98.3794 24.8314C98.9127 25.0848 99.4127 25.2648 99.8794 25.3714C100.346 25.4648 100.806 25.5114 101.259 25.5114C101.899 25.5114 102.373 25.4048 102.679 25.1914C102.999 24.9648 103.159 24.6714 103.159 24.3114C103.159 24.0048 103.053 23.7714 102.839 23.6114C102.639 23.4381 102.333 23.3114 101.919 23.2314L99.9194 22.8514C99.0927 22.6914 98.4594 22.3914 98.0194 21.9514C97.5927 21.4981 97.3794 20.9181 97.3794 20.2114C97.3794 19.5714 97.5527 19.0181 97.8994 18.5514C98.2594 18.0848 98.7527 17.7248 99.3794 17.4714C100.006 17.2181 100.726 17.0914 101.539 17.0914C102.126 17.0914 102.673 17.1581 103.179 17.2914C103.699 17.4114 104.199 17.6048 104.679 17.8714C104.879 17.9781 105.013 18.1181 105.079 18.2914C105.159 18.4648 105.179 18.6448 105.139 18.8314C105.099 19.0048 105.019 19.1648 104.899 19.3114C104.779 19.4448 104.626 19.5314 104.439 19.5714C104.266 19.5981 104.066 19.5581 103.839 19.4514C103.426 19.2381 103.026 19.0848 102.639 18.9914C102.266 18.8981 101.906 18.8514 101.559 18.8514C100.906 18.8514 100.419 18.9648 100.099 19.1914C99.7927 19.4181 99.6394 19.7181 99.6394 20.0914C99.6394 20.3714 99.7327 20.6048 99.9194 20.7914C100.106 20.9781 100.393 21.1048 100.779 21.1714L102.779 21.5514C103.646 21.7114 104.299 22.0048 104.739 22.4314C105.193 22.8581 105.419 23.4314 105.419 24.1514C105.419 25.1248 105.039 25.8914 104.279 26.4514C103.519 26.9981 102.506 27.2714 101.239 27.2714ZM108.665 27.2314C108.265 27.2314 107.958 27.1248 107.745 26.9114C107.532 26.6848 107.425 26.3648 107.425 25.9514V14.0714C107.425 13.6581 107.532 13.3448 107.745 13.1314C107.958 12.9181 108.265 12.8114 108.665 12.8114C109.065 12.8114 109.372 12.9181 109.585 13.1314C109.812 13.3448 109.925 13.6581 109.925 14.0714V19.2514H109.645C109.938 18.5448 110.392 18.0114 111.005 17.6514C111.632 17.2781 112.338 17.0914 113.125 17.0914C113.912 17.0914 114.558 17.2381 115.065 17.5314C115.572 17.8248 115.952 18.2714 116.205 18.8714C116.458 19.4581 116.585 20.2048 116.585 21.1114V25.9514C116.585 26.3648 116.478 26.6848 116.265 26.9114C116.052 27.1248 115.745 27.2314 115.345 27.2314C114.945 27.2314 114.632 27.1248 114.405 26.9114C114.192 26.6848 114.085 26.3648 114.085 25.9514V21.2314C114.085 20.4714 113.938 19.9181 113.645 19.5714C113.365 19.2248 112.925 19.0514 112.325 19.0514C111.592 19.0514 111.005 19.2848 110.565 19.7514C110.138 20.2048 109.925 20.8114 109.925 21.5714V25.9514C109.925 26.8048 109.505 27.2314 108.665 27.2314ZM120.664 27.0714C120.251 27.0714 119.931 26.9581 119.704 26.7314C119.478 26.4914 119.364 26.1648 119.364 25.7514V14.2114C119.364 13.7848 119.471 13.4648 119.684 13.2514C119.911 13.0248 120.231 12.9114 120.644 12.9114C121.058 12.9114 121.371 13.0248 121.584 13.2514C121.811 13.4648 121.924 13.7848 121.924 14.2114V24.8914H127.724C128.084 24.8914 128.358 24.9848 128.544 25.1714C128.744 25.3581 128.844 25.6248 128.844 25.9714C128.844 26.3181 128.744 26.5914 128.544 26.7914C128.358 26.9781 128.084 27.0714 127.724 27.0714H120.664ZM131.595 27.2114C131.195 27.2114 130.888 27.0914 130.675 26.8514C130.461 26.6114 130.355 26.2781 130.355 25.8514V18.5114C130.355 18.0714 130.461 17.7381 130.675 17.5114C130.888 17.2714 131.195 17.1514 131.595 17.1514C131.995 17.1514 132.301 17.2714 132.515 17.5114C132.741 17.7381 132.855 18.0714 132.855 18.5114V25.8514C132.855 26.2781 132.748 26.6114 132.535 26.8514C132.321 27.0914 132.008 27.2114 131.595 27.2114ZM131.595 15.2914C131.128 15.2914 130.761 15.1781 130.495 14.9514C130.241 14.7114 130.115 14.3848 130.115 13.9714C130.115 13.5448 130.241 13.2181 130.495 12.9914C130.761 12.7648 131.128 12.6514 131.595 12.6514C132.075 12.6514 132.441 12.7648 132.695 12.9914C132.948 13.2181 133.075 13.5448 133.075 13.9714C133.075 14.3848 132.948 14.7114 132.695 14.9514C132.441 15.1781 132.075 15.2914 131.595 15.2914ZM139.032 27.2714C138.459 27.2714 137.852 27.2114 137.212 27.0914C136.572 26.9714 135.999 26.7648 135.492 26.4714C135.279 26.3381 135.126 26.1848 135.032 26.0114C134.952 25.8248 134.919 25.6448 134.932 25.4714C134.959 25.2848 135.026 25.1248 135.132 24.9914C135.252 24.8581 135.399 24.7714 135.572 24.7314C135.759 24.6914 135.959 24.7248 136.172 24.8314C136.706 25.0848 137.206 25.2648 137.672 25.3714C138.139 25.4648 138.599 25.5114 139.052 25.5114C139.692 25.5114 140.166 25.4048 140.472 25.1914C140.792 24.9648 140.952 24.6714 140.952 24.3114C140.952 24.0048 140.846 23.7714 140.632 23.6114C140.432 23.4381 140.126 23.3114 139.712 23.2314L137.712 22.8514C136.886 22.6914 136.252 22.3914 135.812 21.9514C135.386 21.4981 135.172 20.9181 135.172 20.2114C135.172 19.5714 135.346 19.0181 135.692 18.5514C136.052 18.0848 136.546 17.7248 137.172 17.4714C137.799 17.2181 138.519 17.0914 139.332 17.0914C139.919 17.0914 140.466 17.1581 140.972 17.2914C141.492 17.4114 141.992 17.6048 142.472 17.8714C142.672 17.9781 142.806 18.1181 142.872 18.2914C142.952 18.4648 142.972 18.6448 142.932 18.8314C142.892 19.0048 142.812 19.1648 142.692 19.3114C142.572 19.4448 142.419 19.5314 142.232 19.5714C142.059 19.5981 141.859 19.5581 141.632 19.4514C141.219 19.2381 140.819 19.0848 140.432 18.9914C140.059 18.8981 139.699 18.8514 139.352 18.8514C138.699 18.8514 138.212 18.9648 137.892 19.1914C137.586 19.4181 137.432 19.7181 137.432 20.0914C137.432 20.3714 137.526 20.6048 137.712 20.7914C137.899 20.9781 138.186 21.1048 138.572 21.1714L140.572 21.5514C141.439 21.7114 142.092 22.0048 142.532 22.4314C142.986 22.8581 143.212 23.4314 143.212 24.1514C143.212 25.1248 142.832 25.8914 142.072 26.4514C141.312 26.9981 140.299 27.2714 139.032 27.2714ZM149.6 27.2714C148.734 27.2714 148.007 27.1248 147.42 26.8314C146.847 26.5381 146.42 26.1114 146.14 25.5514C145.86 24.9781 145.72 24.2714 145.72 23.4314V19.1714H144.68C144.36 19.1714 144.114 19.0914 143.94 18.9314C143.767 18.7581 143.68 18.5248 143.68 18.2314C143.68 17.9248 143.767 17.6914 143.94 17.5314C144.114 17.3714 144.36 17.2914 144.68 17.2914H145.72V15.4714C145.72 15.0581 145.827 14.7448 146.04 14.5314C146.267 14.3181 146.58 14.2114 146.98 14.2114C147.38 14.2114 147.687 14.3181 147.9 14.5314C148.114 14.7448 148.22 15.0581 148.22 15.4714V17.2914H150.34C150.66 17.2914 150.907 17.3714 151.08 17.5314C151.254 17.6914 151.34 17.9248 151.34 18.2314C151.34 18.5248 151.254 18.7581 151.08 18.9314C150.907 19.0914 150.66 19.1714 150.34 19.1714H148.22V23.2914C148.22 23.9314 148.36 24.4114 148.64 24.7314C148.92 25.0514 149.374 25.2114 150 25.2114C150.227 25.2114 150.427 25.1914 150.6 25.1514C150.774 25.1114 150.927 25.0848 151.06 25.0714C151.22 25.0581 151.354 25.1114 151.46 25.2314C151.567 25.3381 151.62 25.5648 151.62 25.9114C151.62 26.1781 151.574 26.4181 151.48 26.6314C151.4 26.8314 151.247 26.9714 151.02 27.0514C150.847 27.1048 150.62 27.1514 150.34 27.1914C150.06 27.2448 149.814 27.2714 149.6 27.2714Z" fill="white"/>
</svg>