<svg width="64" height="42" viewBox="0 0 64 42" fill="none" xmlns="http://www.w3.org/2000/svg">
<path d="M37.0489 23.2209L37.1024 23.2152L53.3401 21.6188L64 20.5709L53.3401 19.5241L37.7658 17.9925L46.6975 6.85999L52.202 0L45.1858 5.38194L33.5065 14.339L33.0701 10.6251L32.0006 1.52128L30.9299 10.6251L30.248 16.4348L25.5639 12.7995L18.223 7.10121L24.0511 14.2786L27.0093 17.922H27.0058H26.9511L26.8976 17.9277L10.6599 19.5241L0 20.5709L10.6599 21.6188L24.6806 22.9979L15.6256 34.2829L10.1211 41.1429L17.1384 35.7621L29.7278 26.1053L29.779 26.0654L29.8244 26.0211L30.3597 25.4988L30.9299 30.5132L32.0006 39.9265L33.0712 30.5132L33.7357 24.6682L38.4338 28.3422L45.9981 34.2578L39.9478 26.8619L36.9686 23.2209H36.9942H37.0489Z" fill="white"/>
<path d="M34.7048 21.5826L34.7335 21.5796L43.4322 20.7244L49.1429 20.163L43.4322 19.6022L35.0888 18.7817L39.8737 12.8179L42.8225 9.14286L39.0638 12.026L32.8071 16.8244L32.5733 14.8349L32.0003 9.95783L31.4268 14.8349L31.0615 17.9472L28.5521 15.9997L24.6195 12.9471L27.7417 16.7921L29.3264 18.7439H29.3246H29.2953L29.2666 18.747L20.5678 19.6022L14.8572 20.163L20.5678 20.7244L28.079 21.4631L23.228 27.5087L20.2792 31.1837L24.0385 28.3011L30.7828 23.1278L30.8102 23.1065L30.8345 23.0827L31.1213 22.8029L31.4268 25.4892L32.0003 30.5321L32.5739 25.4892L32.9299 22.358L35.4467 24.3262L39.499 27.4953L36.2578 23.5332L34.6618 21.5826H34.6755H34.7048Z" fill="#0333FF"/>
</svg>